<?xml version="1.0" standalone="no"?>
<!DOCTYPE svg PUBLIC "-//W3C//DTD SVG 20010904//EN"
 "http://www.w3.org/TR/2001/REC-SVG-20010904/DTD/svg10.dtd">
<svg version="1.0" xmlns="http://www.w3.org/2000/svg"
 width="480.000000pt" height="480.000000pt" viewBox="0 0 480.000000 480.000000"
 preserveAspectRatio="xMidYMid meet">
<metadata>
Created by potrace 1.11, written by Peter Selinger 2001-2013
</metadata>
<g transform="translate(0.000000,480.000000) scale(0.100000,-0.100000)"
fill="#000000" stroke="none">
<path d="M3490 3355 c-353 -68 -560 -276 -560 -565 0 -149 44 -254 155 -365
90 -91 141 -124 421 -271 128 -66 262 -142 298 -168 129 -92 184 -196 172
-325 -14 -159 -107 -248 -296 -287 -209 -42 -516 18 -692 136 l-58 38 0 -149
0 -149 40 -20 c100 -51 352 -100 515 -100 188 0 388 47 510 121 73 44 163 139
197 211 38 78 51 138 51 248 1 119 -25 201 -93 298 -91 129 -204 210 -526 376
-353 181 -422 252 -424 432 0 84 29 153 90 208 90 81 192 111 385 110 168 -1
282 -25 399 -83 l76 -39 0 143 0 143 -41 16 c-85 34 -174 47 -359 51 -135 3
-205 1 -260 -10z"/>
<path d="M720 2250 l0 -1080 123 0 124 0 5 788 c3 433 3 849 -1 925 -3 75 -5
137 -4 137 2 0 15 -23 29 -52 14 -28 130 -212 256 -407 127 -196 381 -589 565
-873 l335 -518 152 0 153 0 6 812 c4 446 7 932 7 1080 l0 268 -130 0 -131 0 3
-914 3 -914 -29 46 c-33 54 -307 484 -794 1247 l-338 530 -167 3 -167 2 0
-1080z"/>
</g>
</svg>
